# xmcd
#
# Track frame offsets:
# 150
# 13442
# 20567
# 41757
# 60602
# 81567
# 99917
# 124080
# 148707
# 171042
# 201392
# 233317
# 264445
# 293925
# 322632
#
# Disc length: 4628 seconds
#
#
# Revision: 4
# Processed by: cddbd v1.4PL0 Copyright (c) Steve Scherf et al.
# Submitted via: FreeRIP 2.10 
#
DISCID=d012120f
DTITLE=The Moody Blues - A Night at Red Rocks
DYEAR=1993
DGENRE=Blues
TTITLE0=Overture
TTITLE1=Late Lament
TTITLE2=Tuesday Afternoon (Forever Afternoon)
TTITLE3=For My Lady
TTITLE4=Lean On Me (Tonight)
TTITLE5=Lovely To See You
TTITLE6=I Know You're Out There Somewhere
TTITLE7=The Voice
TTITLE8=Your Wildest Dreams
TTITLE9=Isn't Life Strange
TTITLE10=The Other Side of Life
TTITLE11=I'm Just a Singer (In a Rock and Roll Band)
TTITLE12=Nights in White Satin
TTITLE13=Question
TTITLE14=Ride my See-Saw
EXTD=
EXTT0=
EXTT1=
EXTT2=
EXTT3=
EXTT4=
EXTT5=
EXTT6=
EXTT7=
EXTT8=
EXTT9=
EXTT10=
EXTT11=
EXTT12=
EXTT13=
EXTT14=
PLAYORDER=
